<svg width="1024" height="1024" viewBox="0 0 1024 1024" fill="none" xmlns="http://www.w3.org/2000/svg">
<path d="M0 0H1024V1024H0V0Z" fill="url(#paint0_linear_80415_754)"/>
<path d="M462.94 511.153H353.438V452.042H637.263V511.153H527.877V756.085H462.785L462.94 511.153Z" fill="white"/>
<path d="M685.262 338.566V289.834C685.262 239.487 665.261 191.202 629.661 155.601C594.06 120 545.775 100 495.428 100C445.081 100 396.796 120 361.195 155.601C325.594 191.202 305.593 239.487 305.593 289.834V309.126H363.779V289.834C363.779 254.919 377.648 221.433 402.337 196.744C427.026 172.055 460.512 158.185 495.428 158.185C530.343 158.185 563.829 172.055 588.518 196.744C613.207 221.433 627.077 254.919 627.077 289.834V338.566H252V612.514C252.131 651.633 261.245 690.201 278.638 725.241C296.031 760.282 321.239 790.86 352.319 814.618L495.621 923.811L638.961 814.656C670.04 790.899 695.249 760.32 712.642 725.28C730.035 690.239 739.149 651.672 739.28 612.552V338.605L685.262 338.566ZM680.671 612.514C680.593 642.663 673.595 672.393 660.216 699.412C646.837 726.43 627.434 750.017 603.502 768.355L495.467 850.655L387.431 768.355C363.499 750.017 344.096 726.43 330.717 699.412C317.338 672.393 310.34 642.663 310.262 612.514V396.751H680.671V612.514Z" fill="white"/>
<defs>
<linearGradient id="paint0_linear_80415_754" x1="512" y1="0" x2="512" y2="1024" gradientUnits="userSpaceOnUse">
<stop offset="0.09" stop-color="#00A0B5"/>
<stop offset="1" stop-color="#00E3E7"/>
</linearGradient>
</defs>
</svg>
