<svg width="338" height="278" viewBox="0 0 338 278" fill="none" xmlns="http://www.w3.org/2000/svg">
<path d="M145.768 80.9746V66.4528C145.768 33.2306 121.111 4.16116 88.0703 1.02062C79.2076 0.17477 70.2658 1.18949 61.818 3.99979C53.3701 6.81008 45.6025 11.354 39.0125 17.3404C32.4226 23.3268 27.1557 30.6237 23.5494 38.7636C19.9431 46.9035 18.0768 55.707 18.0701 64.6101V71.0988H37.64V64.6101C37.64 52.8665 42.3051 41.6039 50.6091 33.3C58.913 24.9961 70.1755 20.331 81.919 20.331C93.6626 20.331 104.925 24.9961 113.229 33.3C121.533 41.6039 126.198 52.8665 126.198 64.6101V81.0006H0.0444336V173.14C0.088512 186.298 3.15376 199.27 9.00381 211.055C14.8539 222.841 23.3324 233.125 33.7858 241.116L81.984 277.842L131.882 239.831V239.702H122.123C107.639 239.7 93.5545 244.455 82.0358 253.237L45.699 225.543C37.6309 219.396 31.0912 211.468 26.5892 202.379C22.0873 193.29 19.7447 183.284 19.7441 173.14V100.545H163.923V80.9746H145.768Z" fill="#00A0B5"/>
<path d="M190.982 139.05H210.37V221.366H191.319L190.32 209.427C185.674 219.043 172.917 223.702 163.794 223.844C139.604 224.013 121.695 209.089 121.695 180.435C121.695 152.248 140.434 137.506 164.3 137.609C175.24 137.609 185.674 142.8 190.32 150.872L190.982 139.05ZM141.927 180.435C141.927 196.008 152.685 205.287 166.117 205.287C197.938 205.287 197.938 155.739 166.117 155.739C152.685 155.739 141.927 164.849 141.927 180.435Z" fill="#00E3E7"/>
<path d="M315.993 149.158V221.364H336.212V149.158H315.993ZM326.103 118.09C329.05 118.093 331.875 119.267 333.958 121.352C336.041 123.437 337.211 126.264 337.211 129.212C337.211 132.158 336.041 134.983 333.957 137.067C331.874 139.15 329.049 140.32 326.103 140.32C323.156 140.32 320.331 139.15 318.248 137.067C316.164 134.983 314.994 132.158 314.994 129.212C314.994 126.273 316.157 123.454 318.228 121.37C320.3 119.286 323.112 118.107 326.051 118.09H326.103Z" fill="#00E3E7"/>
<path d="M245.993 149.158V229.826C245.993 251.693 231.25 261.802 214.847 261.802C207.291 261.671 199.931 259.374 193.642 255.184L201.104 240.091C205.399 242.907 209.383 244.413 213.523 244.413C220.479 244.413 225.787 239.767 225.787 229.826V149.158H245.993Z" fill="#00E3E7"/>
<path d="M235.883 140.32H235.896C242.031 140.32 247.005 135.347 247.005 129.212V129.199C247.005 123.063 242.031 118.09 235.896 118.09H235.883C229.748 118.09 224.774 123.063 224.774 129.199V129.212C224.774 135.347 229.748 140.32 235.883 140.32Z" fill="#00E3E7"/>
<path d="M293.932 116.325C298.071 116.325 302.055 117.817 306.351 120.634L313.813 105.554C307.527 101.355 300.166 99.0528 292.608 98.9224C276.191 98.9224 261.462 109.032 261.462 130.912V221.416H281.681V169.377H301.29V149.158H281.681V130.86C281.629 120.906 286.937 116.325 293.932 116.325Z" fill="#00E3E7"/>
<path d="M70.9532 139.022H34.162V119.14H129.624V139.022H92.7811V221.441H70.9012L70.9532 139.022Z" fill="#00E3E7"/>
</svg>
