<svg width="234" height="394" viewBox="0 0 234 394" fill="none" xmlns="http://www.w3.org/2000/svg">
<path d="M101.536 196.46H49.2446V168.232H184.782V196.46H132.546V313.425H101.462L101.536 196.46Z" fill="white"/>
<path d="M207.703 114.044V90.7727C207.703 66.73 198.152 43.672 181.151 26.6713C164.15 9.67053 141.092 0.119629 117.05 0.119629C93.0071 0.119629 69.9491 9.67053 52.9484 26.6713C35.9477 43.672 26.3966 66.73 26.3966 90.7727V99.9854H54.1823V90.7727C54.1823 74.0992 60.8056 58.1086 72.5956 46.3187C84.3855 34.5287 100.376 27.9052 117.05 27.9052C133.723 27.9052 149.714 34.5287 161.504 46.3187C173.294 58.1086 179.917 74.0992 179.917 90.7727V114.044H0.803711V244.864C0.866294 263.546 5.21834 281.963 13.5243 298.696C21.8302 315.429 33.8681 330.032 48.7098 341.377L117.142 393.521L185.592 341.395C200.434 330.05 212.472 315.448 220.778 298.714C229.084 281.981 233.436 263.564 233.498 244.883V114.062L207.703 114.044ZM205.51 244.864C205.473 259.262 202.131 273.459 195.742 286.362C189.353 299.264 180.088 310.528 168.659 319.285L117.068 358.586L65.4771 319.285C54.0487 310.528 44.783 299.264 38.3941 286.362C32.0051 273.459 28.6634 259.262 28.6263 244.864V141.83H205.51V244.864Z" fill="white"/>
</svg>
