<svg width="133" height="111" viewBox="0 0 133 111" fill="none" xmlns="http://www.w3.org/2000/svg">
<path d="M57.5577 32.5887V26.8693C57.5577 13.7847 47.8465 2.33566 34.8334 1.09875C31.3428 0.765616 27.8211 1.16526 24.4939 2.2721C21.1667 3.37894 18.1074 5.16857 15.5119 7.52632C12.9165 9.88407 10.8421 12.758 9.42177 15.9639C8.00141 19.1698 7.26639 22.6371 7.26374 26.1435V28.6991H14.9714V26.1435C14.9714 21.5183 16.8087 17.0825 20.0792 13.812C23.3498 10.5415 27.7855 8.70419 32.4107 8.70419C37.0359 8.70419 41.4717 10.5415 44.7422 13.812C48.0127 17.0825 49.8501 21.5183 49.8501 26.1435V32.599H0.164307V68.8883C0.181667 74.0704 1.38892 79.1793 3.69297 83.8211C5.99701 88.4629 9.33631 92.5135 13.4534 95.6607L32.4363 110.125L52.0888 95.1546V95.1035H48.2451C42.5404 95.1029 36.9934 96.9758 32.4567 100.435L18.1454 89.5272C14.9678 87.106 12.3921 83.9839 10.619 80.404C8.84592 76.8241 7.92329 72.8832 7.92304 68.8883V40.2964H64.7082V32.5887H57.5577Z" fill="#00E3E7"/>
<path d="M75.3652 55.4616H83.0013V87.8818H75.4981L75.1045 83.1795C73.2747 86.9669 68.2504 88.8018 64.6572 88.858C55.13 88.9245 48.0766 83.0466 48.0766 71.7611C48.0766 60.6597 55.4571 54.8534 64.8566 54.8943C69.1653 54.8943 73.2747 56.9387 75.1045 60.1179L75.3652 55.4616ZM56.0449 71.7611C56.0449 77.8946 60.2821 81.549 65.5722 81.549C78.1048 81.549 78.1048 62.0346 65.5722 62.0346C60.2821 62.0346 56.0449 65.6226 56.0449 71.7611Z" fill="white"/>
<path d="M124.601 59.4427V87.8813H132.564V59.4427H124.601ZM128.583 47.2065C129.743 47.2079 130.856 47.67 131.677 48.4913C132.497 49.3126 132.958 50.426 132.958 51.5868C132.958 52.7472 132.497 53.86 131.676 54.6806C130.856 55.5011 129.743 55.962 128.583 55.962C127.422 55.962 126.309 55.5011 125.489 54.6806C124.668 53.86 124.207 52.7472 124.207 51.5868C124.207 50.4295 124.665 49.3192 125.481 48.4985C126.297 47.6778 127.405 47.2133 128.562 47.2065H128.583Z" fill="white"/>
<path d="M97.0313 59.4429V91.214C97.0313 99.8263 91.225 103.808 84.7644 103.808C81.7885 103.756 78.8898 102.851 76.4127 101.201L79.3516 95.2569C81.0434 96.366 82.6126 96.9589 84.2431 96.9589C86.9827 96.9589 89.0731 95.1291 89.0731 91.214V59.4429H97.0313Z" fill="white"/>
<path d="M93.0495 55.9619H93.0546C95.471 55.9619 97.4298 54.0031 97.4298 51.5867V51.5816C97.4298 49.1653 95.471 47.2065 93.0546 47.2065H93.0495C90.6332 47.2065 88.6744 49.1653 88.6744 51.5816V51.5867C88.6744 54.0031 90.6332 55.9619 93.0495 55.9619Z" fill="white"/>
<path d="M115.912 46.5118C117.543 46.5118 119.112 47.0996 120.803 48.2087L123.742 42.2695C121.267 40.6158 118.367 39.7091 115.391 39.6577C108.925 39.6577 103.124 43.6393 103.124 52.2568V87.9021H111.087V67.4063H118.81V59.4431H111.087V52.2363C111.067 48.316 113.157 46.5118 115.912 46.5118Z" fill="white"/>
<path d="M28.0917 55.4509H13.6015V47.6206H51.1994V55.4509H36.6887V87.912H28.0713L28.0917 55.4509Z" fill="white"/>
</svg>
